<svg xmlns="http://www.w3.org/2000/svg" version="1.1" xmlns:xlink="http://www.w3.org/1999/xlink" xmlns:svgjs="http://svgjs.dev/svgjs" viewBox="0 0 11.10056624423022 3.904744567309704"><g transform="matrix(1,0,0,1,3.6761663958849238,1.6393522836548522)"><rect width="11.10056624423022" height="11.10056624423022" x="-3.6761663958849238" y="-5.2372631221151105" fill="#ffffff"></rect><g><path d=" M 0.4779899999999999 0.06260399999999999 Q 0.49998599999999993 0.07360200000000006 0.5037929999999999 0.09728999999999999 Q 0.5075999999999999 0.12097800000000003 0.4915259999999999 0.140436 Q 0.4805279999999999 0.15566400000000002 0.4631849999999999 0.157356 Q 0.4458419999999999 0.15904800000000002 0.4280759999999999 0.150588 Q 0.4077719999999999 0.14128200000000002 0.38535299999999995 0.136206 Q 0.3629339999999999 0.13113000000000002 0.3383999999999999 0.13113000000000002 Q 0.292716 0.13113000000000002 0.25676099999999996 0.14551200000000003 Q 0.22080599999999997 0.15989400000000004 0.19542599999999996 0.18654300000000001 Q 0.17004599999999997 0.213192 0.15693299999999996 0.24957000000000001 Q 0.14381999999999998 0.285948 0.14381999999999998 0.32993999999999996 Q 0.14381999999999998 0.38154599999999994 0.15862499999999996 0.419616 Q 0.17342999999999997 0.4576859999999999 0.19965599999999997 0.483066 Q 0.22588199999999997 0.508446 0.261414 0.520713 Q 0.29694599999999993 0.5329799999999999 0.3383999999999999 0.5329799999999999 Q 0.36124199999999995 0.5329799999999999 0.3840839999999999 0.5287499999999999 Q 0.40692599999999995 0.52452 0.4280759999999999 0.5135219999999999 Q 0.4458419999999999 0.5050619999999999 0.4631849999999999 0.5075999999999999 Q 0.4805279999999999 0.510138 0.4923719999999999 0.525366 Q 0.509292 0.546516 0.504639 0.568935 Q 0.49998599999999993 0.5913539999999999 0.47883599999999993 0.601506 Q 0.4568399999999999 0.6125039999999999 0.43357499999999993 0.6196949999999999 Q 0.41030999999999995 0.6268859999999999 0.3866219999999999 0.630693 Q 0.3629339999999999 0.6345 0.3383999999999999 0.6345 Q 0.27748799999999996 0.6345 0.22292099999999995 0.615042 Q 0.16835399999999998 0.5955839999999999 0.12563099999999996 0.557514 Q 0.08290799999999998 0.5194439999999999 0.05837399999999999 0.46233899999999994 Q 0.033839999999999995 0.405234 0.033839999999999995 0.32993999999999996 Q 0.033839999999999995 0.264798 0.05625899999999999 0.209808 Q 0.07867799999999998 0.154818 0.11970899999999998 0.11463299999999998 Q 0.16073999999999997 0.07444800000000007 0.21657599999999996 0.05202899999999999 Q 0.27241199999999993 0.029610000000000025 0.3383999999999999 0.029610000000000025 Q 0.37562399999999996 0.029610000000000025 0.4111559999999999 0.03807000000000005 Q 0.4466879999999999 0.04653000000000007 0.4779899999999999 0.06260399999999999 M 0.7038839794921874 0.5744339999999999 Q 0.7038839794921874 0.5964299999999999 0.6890789794921874 0.611235 Q 0.6742739794921875 0.6260399999999999 0.6522779794921875 0.6260399999999999 Q 0.6311279794921875 0.6260399999999999 0.6167459794921875 0.611235 Q 0.6023639794921875 0.5964299999999999 0.6023639794921875 0.5744339999999999 L 0.6023639794921875 0.05160600000000004 Q 0.6023639794921875 0.029610000000000025 0.6171689794921874 0.014805000000000068 Q 0.6319739794921875 0 0.6539699794921874 0 Q 0.6759659794921874 0 0.6899249794921875 0.014805000000000068 Q 0.7038839794921874 0.029610000000000025 0.7038839794921874 0.05160600000000004 L 0.7038839794921874 0.5744339999999999 M 1.0312942412109374 0.6345 Q 0.9593842412109373 0.6345 0.9065092412109375 0.604467 Q 0.8536342412109375 0.5744339999999999 0.8252932412109374 0.522828 Q 0.7969522412109374 0.4712219999999999 0.7969522412109374 0.40608 Q 0.7969522412109374 0.32993999999999996 0.8278312412109374 0.276219 Q 0.8587102412109374 0.22249799999999997 0.9086242412109373 0.19373400000000002 Q 0.9585382412109373 0.16497 1.0143742412109373 0.16497 Q 1.0575202412109372 0.16497 1.0960132412109374 0.182736 Q 1.1345062412109375 0.200502 1.1641162412109374 0.231381 Q 1.1937262412109373 0.26226 1.2110692412109374 0.30286799999999997 Q 1.2284122412109373 0.343476 1.2284122412109373 0.38915999999999995 Q 1.2275662412109374 0.40946399999999994 1.2123382412109374 0.422154 Q 1.1971102412109373 0.43484399999999995 1.1768062412109375 0.43484399999999995 L 0.8536342412109375 0.43484399999999995 L 0.8282542412109374 0.350244 L 1.1387362412109374 0.350244 L 1.1201242412109373 0.367164 L 1.1201242412109373 0.34432199999999996 Q 1.1184322412109373 0.31978799999999996 1.1027812412109372 0.30033 Q 1.0871302412109374 0.280872 1.0638652412109373 0.269451 Q 1.0406002412109374 0.25803 1.0143742412109373 0.25803 Q 0.9889942412109374 0.25803 0.9669982412109374 0.264798 Q 0.9450022412109373 0.271566 0.9289282412109374 0.28764 Q 0.9128542412109374 0.303714 0.9035482412109374 0.33078599999999997 Q 0.8942422412109374 0.35785799999999995 0.8942422412109374 0.399312 Q 0.8942422412109374 0.44499599999999995 0.9132772412109373 0.47672099999999995 Q 0.9323122412109374 0.508446 0.9623452412109373 0.5249429999999999 Q 0.9923782412109374 0.5414399999999999 1.0262182412109373 0.5414399999999999 Q 1.0575202412109372 0.5414399999999999 1.0761322412109373 0.536364 Q 1.0947442412109374 0.531288 1.1061652412109373 0.5240969999999999 Q 1.1175862412109374 0.516906 1.1268922412109372 0.51183 Q 1.1421202412109372 0.504216 1.1556562412109375 0.504216 Q 1.1742682412109373 0.504216 1.1865352412109373 0.516906 Q 1.1988022412109374 0.529596 1.1988022412109374 0.546516 Q 1.1988022412109374 0.5693579999999999 1.1751142412109372 0.5879699999999999 Q 1.1531182412109373 0.606582 1.1133562412109375 0.6205409999999999 Q 1.0735942412109374 0.6345 1.0312942412109374 0.6345 M 1.6912126582031246 0.16497 Q 1.7132086582031247 0.16497 1.7275906582031246 0.179352 Q 1.7419726582031247 0.19373400000000002 1.7419726582031247 0.216576 L 1.7419726582031247 0.5744339999999999 Q 1.7419726582031247 0.5964299999999999 1.7275906582031246 0.611235 Q 1.7132086582031247 0.6260399999999999 1.6912126582031246 0.6260399999999999 Q 1.6692166582031247 0.6260399999999999 1.6548346582031248 0.611235 Q 1.6404526582031247 0.5964299999999999 1.6404526582031247 0.5744339999999999 L 1.6404526582031247 0.5329799999999999 L 1.6590646582031248 0.5405939999999999 Q 1.6590646582031248 0.551592 1.6472206582031248 0.5672429999999999 Q 1.6353766582031248 0.5828939999999999 1.6150726582031247 0.5981219999999999 Q 1.5947686582031246 0.61335 1.5672736582031248 0.623925 Q 1.5397786582031248 0.6345 1.5076306582031247 0.6345 Q 1.4492566582031248 0.6345 1.4018806582031247 0.604467 Q 1.3545046582031248 0.5744339999999999 1.3270096582031248 0.521559 Q 1.2995146582031247 0.468684 1.2995146582031247 0.40015799999999996 Q 1.2995146582031247 0.33078599999999997 1.3270096582031248 0.27791099999999996 Q 1.3545046582031248 0.225036 1.4010346582031248 0.19500299999999998 Q 1.4475646582031247 0.16497 1.5042466582031249 0.16497 Q 1.5406246582031247 0.16497 1.5710806582031247 0.175968 Q 1.6015366582031247 0.18696600000000002 1.6239556582031247 0.203886 Q 1.6463746582031247 0.220806 1.6586416582031247 0.238149 Q 1.6709086582031247 0.255492 1.6709086582031247 0.267336 L 1.6404526582031247 0.27833399999999997 L 1.6404526582031247 0.216576 Q 1.6404526582031247 0.19458000000000003 1.6548346582031248 0.17977500000000002 Q 1.6692166582031247 0.16497 1.6912126582031246 0.16497 M 1.5203206582031248 0.5414399999999999 Q 1.5575446582031247 0.5414399999999999 1.5854626582031248 0.522828 Q 1.6133806582031247 0.504216 1.6290316582031248 0.47206799999999993 Q 1.6446826582031249 0.43992 1.6446826582031249 0.40015799999999996 Q 1.6446826582031249 0.35955 1.6290316582031248 0.32740199999999997 Q 1.6133806582031247 0.29525399999999996 1.5854626582031248 0.276642 Q 1.5575446582031247 0.25803 1.5203206582031248 0.25803 Q 1.4839426582031248 0.25803 1.4560246582031249 0.276642 Q 1.4281066582031248 0.29525399999999996 1.412455658203125 0.32740199999999997 Q 1.3968046582031248 0.35955 1.3968046582031248 0.40015799999999996 Q 1.3968046582031248 0.43992 1.412455658203125 0.47206799999999993 Q 1.4281066582031248 0.504216 1.4560246582031249 0.522828 Q 1.4839426582031248 0.5414399999999999 1.5203206582031248 0.5414399999999999 M 2.102356678710937 0.16497 Q 2.164960678710937 0.16497 2.197531678710937 0.19119599999999998 Q 2.2301026787109373 0.217422 2.2423696787109373 0.260991 Q 2.254636678710937 0.30456 2.254636678710937 0.35785799999999995 L 2.254636678710937 0.5744339999999999 Q 2.254636678710937 0.5964299999999999 2.240254678710937 0.611235 Q 2.225872678710937 0.6260399999999999 2.203876678710937 0.6260399999999999 Q 2.1818806787109373 0.6260399999999999 2.1674986787109374 0.611235 Q 2.153116678710937 0.5964299999999999 2.153116678710937 0.5744339999999999 L 2.153116678710937 0.35785799999999995 Q 2.153116678710937 0.32993999999999996 2.1459256787109373 0.307521 Q 2.138734678710937 0.28510199999999997 2.120122678710937 0.271566 Q 2.101510678710937 0.25803 2.0668246787109372 0.25803 Q 2.032984678710937 0.25803 2.0097196787109373 0.271566 Q 1.9864546787109372 0.28510199999999997 1.9741876787109371 0.307521 Q 1.9619206787109371 0.32993999999999996 1.9619206787109371 0.35785799999999995 L 1.9619206787109371 0.5744339999999999 Q 1.9619206787109371 0.5964299999999999 1.9475386787109372 0.611235 Q 1.933156678710937 0.6260399999999999 1.9111606787109372 0.6260399999999999 Q 1.889164678710937 0.6260399999999999 1.8747826787109372 0.611235 Q 1.8604006787109373 0.5964299999999999 1.8604006787109373 0.5744339999999999 L 1.8604006787109373 0.225036 Q 1.8604006787109373 0.20304 1.8747826787109372 0.18823499999999999 Q 1.889164678710937 0.17343000000000003 1.9111606787109372 0.17343000000000003 Q 1.933156678710937 0.17343000000000003 1.9475386787109372 0.18823499999999999 Q 1.9619206787109371 0.20304 1.9619206787109371 0.225036 L 1.9619206787109371 0.261414 L 1.9492306787109372 0.258876 Q 1.9568446787109373 0.244494 1.9712266787109372 0.227997 Q 1.9856086787109373 0.21150000000000002 2.005066678710937 0.19711800000000002 Q 2.024524678710937 0.182736 2.0490586787109373 0.17385299999999998 Q 2.0735926787109373 0.16497 2.102356678710937 0.16497 M 2.7994924863281248 0.6345 Q 2.739426486328125 0.6345 2.691627486328125 0.608274 Q 2.6438284863281245 0.5820479999999999 2.6163334863281245 0.5397479999999999 Q 2.588838486328125 0.49744799999999995 2.588838486328125 0.44922599999999996 Q 2.588838486328125 0.40692599999999995 2.603643486328125 0.37181699999999995 Q 2.6184484863281248 0.33670799999999995 2.6484814863281247 0.30963599999999997 Q 2.6785144863281247 0.282564 2.7250444863281245 0.26395199999999996 L 2.791032486328125 0.332478 Q 2.7318124863281246 0.345168 2.7119314863281248 0.370971 Q 2.6920504863281245 0.39677399999999996 2.6920504863281245 0.433998 Q 2.6920504863281245 0.45937799999999995 2.7047404863281246 0.48348899999999995 Q 2.7174304863281247 0.5075999999999999 2.7461944863281245 0.5232509999999999 Q 2.7749584863281247 0.538902 2.8231804863281247 0.538902 Q 2.8629424863281248 0.538902 2.8946674863281245 0.520713 Q 2.9263924863281248 0.502524 2.9496574863281246 0.472491 Q 2.9729224863281245 0.44245799999999996 2.9877274863281245 0.40565699999999993 Q 3.0025324863281244 0.36885599999999996 3.0076084863281247 0.33078599999999997 Q 3.0093004863281245 0.31725 3.0181834863281245 0.30963599999999997 Q 3.0270664863281245 0.302022 3.0482164863281245 0.302022 Q 3.0702124863281246 0.302022 3.0829024863281247 0.31978799999999996 Q 3.0955924863281243 0.33755399999999997 3.0922084863281247 0.36124199999999995 Q 3.0845944863281245 0.412002 3.0630214863281244 0.4606469999999999 Q 3.0414484863281244 0.509292 3.0054934863281244 0.548631 Q 2.9695384863281244 0.5879699999999999 2.9183554863281245 0.611235 Q 2.8671724863281245 0.6345 2.7994924863281248 0.6345 M 3.1006684863281246 0.627732 Q 3.0905164863281245 0.627732 3.0833254863281248 0.6251939999999999 Q 3.0761344863281246 0.6226559999999999 3.0719044863281244 0.6192719999999999 Q 3.0109924863281248 0.56682 2.9606554863281245 0.522405 Q 2.9103184863281246 0.4779899999999999 2.8680184863281246 0.43738199999999994 Q 2.8257184863281246 0.39677399999999996 2.7884944863281245 0.35447399999999996 Q 2.7588844863281246 0.320634 2.7343504863281245 0.293562 Q 2.7098164863281244 0.26649 2.6950114863281245 0.24068699999999998 Q 2.6802064863281245 0.21488400000000002 2.6802064863281245 0.18358200000000002 Q 2.6802064863281245 0.14212800000000003 2.7026254863281247 0.10617300000000007 Q 2.7250444863281245 0.070218 2.766498486328125 0.047799000000000036 Q 2.8079524863281247 0.02538000000000007 2.8646344863281246 0.02538000000000007 Q 2.9230084863281247 0.02538000000000007 2.9699614863281245 0.044838000000000044 Q 3.0169144863281248 0.06429600000000002 3.0329884863281245 0.09644399999999997 Q 3.0338344863281246 0.09728999999999999 3.0372184863281246 0.10701899999999998 Q 3.0406024863281247 0.11674799999999996 3.0406024863281247 0.129438 Q 3.0406024863281247 0.14551200000000003 3.0287584863281247 0.157356 Q 3.0169144863281248 0.16920000000000002 2.9966104863281244 0.16920000000000002 Q 2.9830744863281247 0.16920000000000002 2.9754604863281244 0.164124 Q 2.9678464863281246 0.15904800000000002 2.9636164863281245 0.153972 Q 2.9450044863281244 0.129438 2.920893486328125 0.11970900000000007 Q 2.8967824863281244 0.10997999999999997 2.8646344863281246 0.10997999999999997 Q 2.8265644863281247 0.10997999999999997 2.8066834863281245 0.130284 Q 2.7868024863281247 0.150588 2.7868024863281247 0.178506 Q 2.7868024863281247 0.20473200000000003 2.8054144863281247 0.230535 Q 2.824026486328125 0.256338 2.848137486328125 0.27918 Q 2.872248486328125 0.302022 2.8883224863281245 0.31978799999999996 Q 2.914548486328125 0.34770599999999996 2.9471194863281247 0.37943099999999996 Q 2.9796904863281246 0.41115599999999997 3.0126844863281246 0.44118899999999994 Q 3.0456784863281245 0.4712219999999999 3.0740194863281247 0.49702499999999994 Q 3.1023604863281244 0.522828 3.1201264863281244 0.5397479999999999 Q 3.1311244863281247 0.5498999999999999 3.1366234863281246 0.560052 Q 3.1421224863281245 0.5702039999999999 3.1421224863281245 0.5845859999999999 Q 3.1421224863281245 0.5955839999999999 3.1323934863281244 0.6116579999999999 Q 3.1226644863281248 0.627732 3.1006684863281246 0.627732 M 3.6708840527343747 0.6345 Q 3.6116640527343744 0.6345 3.5642880527343745 0.6196949999999999 Q 3.5169120527343747 0.6048899999999999 3.4737660527343746 0.5676659999999999 Q 3.4627680527343747 0.55836 3.4568460527343747 0.546516 Q 3.4509240527343747 0.5346719999999999 3.4509240527343747 0.522828 Q 3.4509240527343747 0.50337 3.4648830527343746 0.4885649999999999 Q 3.478842052734375 0.47375999999999996 3.499992052734375 0.47375999999999996 Q 3.5160660527343746 0.47375999999999996 3.5287560527343746 0.48391199999999995 Q 3.5609040527343745 0.510138 3.5926290527343747 0.523674 Q 3.6243540527343745 0.53721 3.6708840527343747 0.53721 Q 3.7021860527343744 0.53721 3.7284120527343747 0.527481 Q 3.7546380527343746 0.517752 3.7707120527343747 0.501255 Q 3.7867860527343744 0.48475799999999997 3.7867860527343744 0.46360799999999996 Q 3.7867860527343744 0.43822799999999995 3.771558052734375 0.420462 Q 3.7563300527343744 0.40269599999999994 3.7250280527343747 0.39042899999999997 Q 3.6937260527343745 0.378162 3.6455040527343745 0.37139399999999995 Q 3.5998200527343744 0.36462599999999995 3.5651340527343747 0.35066699999999995 Q 3.5304480527343745 0.33670799999999995 3.5071830527343746 0.315135 Q 3.4839180527343747 0.293562 3.4720740527343747 0.26437499999999997 Q 3.460230052734375 0.235188 3.460230052734375 0.19881 Q 3.460230052734375 0.14382 3.4885710527343745 0.104904 Q 3.5169120527343747 0.06598800000000005 3.5651340527343747 0.04568400000000006 Q 3.6133560527343747 0.02538000000000007 3.671730052734375 0.02538000000000007 Q 3.7267200527343745 0.02538000000000007 3.7736730527343747 0.04187700000000005 Q 3.8206260527343745 0.05837400000000004 3.8502360527343744 0.083754 Q 3.8747700527343745 0.10321199999999997 3.8747700527343745 0.12859200000000004 Q 3.8747700527343745 0.147204 3.8603880527343746 0.16243200000000002 Q 3.8460060527343747 0.17765999999999998 3.8265480527343745 0.17765999999999998 Q 3.8138580527343744 0.17765999999999998 3.8037060527343747 0.17004600000000003 Q 3.7901700527343745 0.158202 3.7673280527343747 0.147627 Q 3.7444860527343744 0.137052 3.7191060527343747 0.129861 Q 3.6937260527343745 0.12267000000000006 3.671730052734375 0.12267000000000006 Q 3.635352052734375 0.12267000000000006 3.6103950527343747 0.13197600000000004 Q 3.5854380527343745 0.14128200000000002 3.5727480527343745 0.157356 Q 3.560058052734375 0.17343000000000003 3.560058052734375 0.19458000000000003 Q 3.560058052734375 0.21996 3.5748630527343748 0.23645699999999997 Q 3.5896680527343747 0.252954 3.6175860527343744 0.262683 Q 3.6455040527343745 0.272412 3.6844200527343745 0.280026 Q 3.735180052734375 0.289332 3.7736730527343747 0.302022 Q 3.8121660527343746 0.314712 3.8375460527343748 0.334593 Q 3.8629260527343745 0.35447399999999996 3.8756160527343746 0.38450699999999993 Q 3.8883060527343747 0.41453999999999996 3.8883060527343747 0.4576859999999999 Q 3.8883060527343747 0.5126759999999999 3.8578500527343746 0.552438 Q 3.8273940527343746 0.5922 3.7779030527343744 0.61335 Q 3.7284120527343747 0.6345 3.6708840527343747 0.6345 M 4.194545247070312 0.6345 Q 4.1226352470703125 0.6345 4.069760247070312 0.604467 Q 4.016885247070312 0.5744339999999999 3.9885442470703123 0.522828 Q 3.960203247070312 0.4712219999999999 3.960203247070312 0.40608 Q 3.960203247070312 0.32993999999999996 3.9910822470703122 0.276219 Q 4.021961247070312 0.22249799999999997 4.071875247070312 0.19373400000000002 Q 4.121789247070312 0.16497 4.177625247070313 0.16497 Q 4.220771247070312 0.16497 4.259264247070313 0.182736 Q 4.2977572470703125 0.200502 4.327367247070312 0.231381 Q 4.356977247070312 0.26226 4.374320247070312 0.30286799999999997 Q 4.391663247070312 0.343476 4.391663247070312 0.38915999999999995 Q 4.390817247070312 0.40946399999999994 4.375589247070312 0.422154 Q 4.360361247070312 0.43484399999999995 4.3400572470703125 0.43484399999999995 L 4.016885247070312 0.43484399999999995 L 3.9915052470703123 0.350244 L 4.301987247070312 0.350244 L 4.283375247070312 0.367164 L 4.283375247070312 0.34432199999999996 Q 4.281683247070312 0.31978799999999996 4.266032247070312 0.30033 Q 4.250381247070312 0.280872 4.227116247070312 0.269451 Q 4.203851247070312 0.25803 4.177625247070313 0.25803 Q 4.152245247070312 0.25803 4.130249247070312 0.264798 Q 4.108253247070312 0.271566 4.092179247070312 0.28764 Q 4.076105247070312 0.303714 4.066799247070312 0.33078599999999997 Q 4.057493247070312 0.35785799999999995 4.057493247070312 0.399312 Q 4.057493247070312 0.44499599999999995 4.076528247070312 0.47672099999999995 Q 4.095563247070312 0.508446 4.1255962470703125 0.5249429999999999 Q 4.155629247070312 0.5414399999999999 4.1894692470703125 0.5414399999999999 Q 4.220771247070312 0.5414399999999999 4.239383247070312 0.536364 Q 4.257995247070312 0.531288 4.269416247070312 0.5240969999999999 Q 4.280837247070312 0.516906 4.290143247070312 0.51183 Q 4.305371247070312 0.504216 4.318907247070312 0.504216 Q 4.337519247070312 0.504216 4.349786247070313 0.516906 Q 4.362053247070312 0.529596 4.362053247070312 0.546516 Q 4.362053247070312 0.5693579999999999 4.338365247070312 0.5879699999999999 Q 4.3163692470703126 0.606582 4.276607247070312 0.6205409999999999 Q 4.236845247070312 0.6345 4.194545247070312 0.6345 M 4.535497705078124 0.6260399999999999 Q 4.5135017050781245 0.6260399999999999 4.499119705078124 0.611235 Q 4.484737705078125 0.5964299999999999 4.484737705078125 0.5744339999999999 L 4.484737705078125 0.225036 Q 4.484737705078125 0.20304 4.499119705078124 0.18823499999999999 Q 4.5135017050781245 0.17343000000000003 4.535497705078124 0.17343000000000003 Q 4.557493705078125 0.17343000000000003 4.571875705078124 0.18823499999999999 Q 4.586257705078125 0.20304 4.586257705078125 0.225036 L 4.586257705078125 0.30456 L 4.580335705078125 0.247878 Q 4.589641705078124 0.227574 4.604446705078125 0.21192300000000003 Q 4.619251705078125 0.196272 4.637863705078125 0.185697 Q 4.656475705078124 0.175122 4.677625705078125 0.17004600000000003 Q 4.698775705078124 0.16497 4.719925705078125 0.16497 Q 4.745305705078125 0.16497 4.762648705078124 0.179352 Q 4.779991705078125 0.19373400000000002 4.779991705078125 0.213192 Q 4.779991705078125 0.24111 4.765609705078124 0.253377 Q 4.751227705078125 0.265644 4.734307705078125 0.265644 Q 4.7182337050781245 0.265644 4.705120705078125 0.259722 Q 4.692007705078124 0.25379999999999997 4.675087705078124 0.25379999999999997 Q 4.659859705078125 0.25379999999999997 4.644208705078125 0.260991 Q 4.628557705078125 0.268182 4.615444705078125 0.28341 Q 4.602331705078124 0.29863799999999996 4.594294705078124 0.321057 Q 4.586257705078125 0.343476 4.586257705078125 0.373932 L 4.586257705078125 0.5744339999999999 Q 4.586257705078125 0.5964299999999999 4.571875705078124 0.611235 Q 4.557493705078125 0.6260399999999999 4.535497705078124 0.6260399999999999 M 4.922973140625 0.17343000000000003 Q 4.939047140625 0.17343000000000003 4.952583140625 0.181467 Q 4.966119140625 0.189504 4.972887140625 0.20557799999999998 L 5.097249140625 0.489834 L 5.078637140625 0.49829399999999996 L 5.205537140625 0.206424 Q 5.219919140625 0.17258400000000002 5.250375140625 0.174276 Q 5.271525140625 0.174276 5.284638140625 0.18738900000000003 Q 5.2977511406249995 0.200502 5.2977511406249995 0.21996 Q 5.2977511406249995 0.22588199999999997 5.295636140625 0.23265000000000002 Q 5.293521140625 0.23941800000000002 5.290983140625 0.24534 L 5.132781140625 0.593892 Q 5.119245140625 0.6243479999999999 5.089635140625 0.6260399999999999 Q 5.073561140625 0.628578 5.058756140625 0.620118 Q 5.0439511406249995 0.6116579999999999 5.036337140625 0.593892 L 4.878981140625 0.24534 Q 4.877289140625 0.24111 4.875174140625 0.234342 Q 4.873059140625 0.227574 4.873059140625 0.21826800000000002 Q 4.873059140625 0.20304 4.886595140625 0.18823499999999999 Q 4.900131140625 0.17343000000000003 4.922973140625 0.17343000000000003 M 5.4821890546875 0.5744339999999999 Q 5.4821890546875 0.5964299999999999 5.4678070546874995 0.611235 Q 5.4534250546875 0.6260399999999999 5.4314290546874995 0.6260399999999999 Q 5.4094330546875 0.6260399999999999 5.3950510546874995 0.611235 Q 5.3806690546875 0.5964299999999999 5.3806690546875 0.5744339999999999 L 5.3806690546875 0.225036 Q 5.3806690546875 0.20304 5.3950510546874995 0.18823499999999999 Q 5.4094330546875 0.17343000000000003 5.4314290546874995 0.17343000000000003 Q 5.4534250546875 0.17343000000000003 5.4678070546874995 0.18823499999999999 Q 5.4821890546875 0.20304 5.4821890546875 0.225036 L 5.4821890546875 0.5744339999999999 M 5.4305830546875 0.11843999999999999 Q 5.4018190546875 0.11843999999999999 5.3899750546875 0.10913400000000006 Q 5.3781310546875 0.09982800000000003 5.3781310546875 0.07613999999999999 L 5.3781310546875 0.060066000000000064 Q 5.3781310546875 0.03553200000000001 5.3912440546875 0.026649000000000034 Q 5.4043570546875 0.01776600000000006 5.4314290546874995 0.01776600000000006 Q 5.4610390546875 0.01776600000000006 5.4728830546875 0.027071999999999985 Q 5.4847270546875 0.03637800000000002 5.4847270546875 0.060066000000000064 L 5.4847270546875 0.07613999999999999 Q 5.4847270546875 0.10067400000000004 5.4720370546875 0.10955700000000002 Q 5.4593470546875 0.11843999999999999 5.4305830546875 0.11843999999999999 M 5.791844469726562 0.16497 Q 5.840066469726562 0.16497 5.876021469726562 0.175122 Q 5.911976469726562 0.185274 5.9318574697265625 0.203463 Q 5.951738469726562 0.22165200000000002 5.951738469726562 0.24703199999999997 Q 5.951738469726562 0.26395199999999996 5.941586469726562 0.278757 Q 5.931434469726562 0.293562 5.911976469726562 0.293562 Q 5.898440469726562 0.293562 5.889557469726562 0.289755 Q 5.8806744697265625 0.285948 5.873906469726562 0.280026 Q 5.867138469726562 0.274104 5.857832469726562 0.269028 Q 5.849372469726562 0.26395199999999996 5.832029469726562 0.260991 Q 5.814686469726562 0.25803 5.806226469726562 0.25803 Q 5.763080469726562 0.25803 5.733047469726562 0.276642 Q 5.703014469726562 0.29525399999999996 5.686940469726562 0.32697899999999996 Q 5.670866469726562 0.35870399999999997 5.670866469726562 0.40015799999999996 Q 5.670866469726562 0.440766 5.687363469726562 0.472491 Q 5.703860469726562 0.504216 5.733047469726562 0.522828 Q 5.762234469726562 0.5414399999999999 5.800304469726562 0.5414399999999999 Q 5.821454469726562 0.5414399999999999 5.836682469726562 0.538902 Q 5.851910469726562 0.536364 5.862062469726562 0.531288 Q 5.873906469726562 0.52452 5.883212469726562 0.516906 Q 5.8925184697265625 0.509292 5.911130469726562 0.509292 Q 5.933126469726562 0.509292 5.944970469726562 0.5232509999999999 Q 5.956814469726562 0.53721 5.956814469726562 0.557514 Q 5.956814469726562 0.578664 5.933126469726562 0.596007 Q 5.909438469726562 0.61335 5.870945469726562 0.623925 Q 5.832452469726562 0.6345 5.787614469726562 0.6345 Q 5.720780469726562 0.6345 5.671712469726562 0.603621 Q 5.622644469726562 0.572742 5.595995469726562 0.5194439999999999 Q 5.569346469726562 0.46614599999999995 5.569346469726562 0.40015799999999996 Q 5.569346469726562 0.33078599999999997 5.597687469726562 0.27791099999999996 Q 5.626028469726562 0.225036 5.676365469726562 0.19500299999999998 Q 5.726702469726562 0.16497 5.791844469726562 0.16497 M 6.247850862304687 0.6345 Q 6.175940862304687 0.6345 6.123065862304687 0.604467 Q 6.070190862304687 0.5744339999999999 6.041849862304687 0.522828 Q 6.013508862304687 0.4712219999999999 6.013508862304687 0.40608 Q 6.013508862304687 0.32993999999999996 6.044387862304687 0.276219 Q 6.075266862304687 0.22249799999999997 6.1251808623046875 0.19373400000000002 Q 6.175094862304687 0.16497 6.230930862304687 0.16497 Q 6.274076862304687 0.16497 6.312569862304687 0.182736 Q 6.351062862304687 0.200502 6.380672862304687 0.231381 Q 6.410282862304687 0.26226 6.427625862304687 0.30286799999999997 Q 6.4449688623046875 0.343476 6.4449688623046875 0.38915999999999995 Q 6.444122862304687 0.40946399999999994 6.428894862304687 0.422154 Q 6.413666862304687 0.43484399999999995 6.393362862304687 0.43484399999999995 L 6.070190862304687 0.43484399999999995 L 6.044810862304687 0.350244 L 6.355292862304687 0.350244 L 6.3366808623046875 0.367164 L 6.3366808623046875 0.34432199999999996 Q 6.334988862304687 0.31978799999999996 6.319337862304687 0.30033 Q 6.303686862304687 0.280872 6.280421862304687 0.269451 Q 6.257156862304687 0.25803 6.230930862304687 0.25803 Q 6.205550862304687 0.25803 6.183554862304687 0.264798 Q 6.1615588623046875 0.271566 6.145484862304687 0.28764 Q 6.129410862304687 0.303714 6.120104862304687 0.33078599999999997 Q 6.110798862304687 0.35785799999999995 6.110798862304687 0.399312 Q 6.110798862304687 0.44499599999999995 6.129833862304687 0.47672099999999995 Q 6.148868862304687 0.508446 6.178901862304687 0.5249429999999999 Q 6.208934862304687 0.5414399999999999 6.242774862304687 0.5414399999999999 Q 6.274076862304687 0.5414399999999999 6.292688862304687 0.536364 Q 6.311300862304687 0.531288 6.322721862304687 0.5240969999999999 Q 6.334142862304687 0.516906 6.343448862304687 0.51183 Q 6.358676862304687 0.504216 6.372212862304687 0.504216 Q 6.3908248623046875 0.504216 6.403091862304687 0.516906 Q 6.415358862304687 0.529596 6.415358862304687 0.546516 Q 6.415358862304687 0.5693579999999999 6.391670862304687 0.5879699999999999 Q 6.369674862304687 0.606582 6.329912862304687 0.6205409999999999 Q 6.290150862304687 0.6345 6.247850862304687 0.6345 M 6.5118173203125 0.5558219999999999 Q 6.5033573203125 0.543978 6.5042033203125 0.525366 Q 6.5050493203125 0.5067539999999999 6.5261993203125 0.49321799999999993 Q 6.5397353203125 0.48475799999999997 6.5549633203125 0.486027 Q 6.5701913203125 0.48729599999999995 6.5845733203125 0.501678 Q 6.6091073203125 0.5262119999999999 6.6361793203125 0.5397479999999999 Q 6.6632513203125 0.5532839999999999 6.7038593203125 0.5532839999999999 Q 6.7165493203125 0.552438 6.7317773203125 0.549477 Q 6.7470053203125 0.546516 6.7584263203125 0.535941 Q 6.7698473203125 0.525366 6.7698473203125 0.50337 Q 6.7698473203125 0.48475799999999997 6.7571573203125 0.47375999999999996 Q 6.7444673203125 0.46276199999999995 6.7237403203125 0.455148 Q 6.7030133203125 0.447534 6.6776333203125 0.440766 Q 6.6514073203125 0.433152 6.6239123203125 0.42384599999999995 Q 6.5964173203125 0.41453999999999996 6.5735753203125 0.39973499999999995 Q 6.5507333203125 0.38493 6.5363513203125 0.360396 Q 6.5219693203125 0.335862 6.5219693203125 0.29863799999999996 Q 6.5219693203125 0.256338 6.5456573203125 0.22672799999999999 Q 6.5693453203125 0.19711800000000002 6.6069923203125 0.18104399999999998 Q 6.6446393203125 0.16497 6.6860933203125 0.16497 Q 6.7123193203125 0.16497 6.7410833203125 0.171315 Q 6.7698473203125 0.17765999999999998 6.7960733203125 0.19161899999999998 Q 6.8222993203125 0.20557799999999998 6.8400653203125 0.22842 Q 6.8493713203125 0.24111 6.8510633203125 0.258876 Q 6.8527553203125 0.276642 6.8349893203125 0.291024 Q 6.8222993203125 0.301176 6.8053793203125 0.299907 Q 6.7884593203125 0.29863799999999996 6.7774613203125 0.28848599999999996 Q 6.7630793203125 0.269874 6.7389683203125 0.258876 Q 6.7148573203125 0.247878 6.6835553203125 0.247878 Q 6.6708653203125 0.247878 6.6560603203125 0.250839 Q 6.6412553203125 0.25379999999999997 6.6302573203125 0.263529 Q 6.6192593203125 0.273258 6.6192593203125 0.294408 Q 6.6192593203125 0.313866 6.6319493203125 0.325287 Q 6.6446393203125 0.33670799999999995 6.6662123203125 0.34389899999999995 Q 6.6877853203125 0.35108999999999996 6.7123193203125 0.35785799999999995 Q 6.7376993203125 0.36462599999999995 6.7639253203125 0.373932 Q 6.7901513203125 0.38323799999999997 6.8121473203125 0.398466 Q 6.8341433203125 0.413694 6.8476793203125 0.437805 Q 6.8612153203125 0.461916 6.8612153203125 0.4991399999999999 Q 6.8612153203125 0.5422859999999999 6.8358353203124995 0.572742 Q 6.8104553203125 0.6031979999999999 6.7723853203125 0.618849 Q 6.7343153203125 0.6345 6.6945533203125 0.6345 Q 6.6446393203125 0.6345 6.5947253203125 0.617157 Q 6.5448113203125 0.599814 6.5118173203125 0.5558219999999999" fill="#56cc84" fill-rule="nonzero"></path></g><g></g><g transform="matrix(-1,0,0,1,-3.447587323906812,0)" clip-path="url(#SvgjsClipPath1002)"><g clip-path="url(#SvgjsClipPath1000abefaa11-656e-4ef2-97de-65575a50ab5a)"><path d=" M -0.989207096761231 -0.07257053745707487 L -0.989207096761231 0.6414874111956557 L -1.2918829467161976 0.7668480727350186 L -1.2918829467161976 -0.07257053745707487 Z" fill="#56cc84" transform="matrix(1,0,0,1,0,0)" fill-rule="nonzero"></path></g><g clip-path="url(#a127b982d-5b9b-4d2e-a5b1-1964ff8468f1abefaa11-656e-4ef2-97de-65575a50ab5a)"><path d=" M -1.7237942772429058 -1.1057732116767398 C -2.5060991131163437 -1.1057732116767398 -3.142587323906812 -0.4692850008862717 -3.142587323906812 0.31301983498716623 C -3.142587323906812 0.3522120129269093 -3.1409580878723653 0.39095162530152816 -3.137790128916497 0.4294196983370726 C -3.1281529314540157 0.5498665608384679 -3.102930655097673 0.6685542569374932 -3.0627547582189276 0.7825113522468625 L -2.775013571913056 0.688287201588031 C -2.775013571913056 0.688287201588031 -2.802529558272598 0.6093597670303961 -2.817373708808667 0.5371303028365975 L -2.817373708808667 0.5370397897235726 C -2.832310709992509 0.46330076197177683 -2.8398606176478114 0.3882564991329296 -2.8399114739518447 0.31301983498716623 C -2.839911473951845 0.24504448710553373 -2.833756582266158 0.17833632280624823 -2.821989877572933 0.11361944699350879 C -2.727765726914105 -0.40701197912520215 -2.2712175848169602 -0.8030973617217732 -1.7237942772429058 -0.8030973617217732 C -1.1083956217872184 -0.8030973617217732 -0.6076770805339664 -0.30237882046852105 -0.6076770805339664 0.31301983498716623 C -0.6076770805339664 0.5166743392929898 -0.6625280270270015 0.7079285471144146 -0.7582909006072511 0.8724813865935201 C -0.8096323995791908 0.9607316793384872 -0.8727912675229237 1.041553104373524 -0.9460150970207089 1.112703188561368 C -1.0194423445206993 1.184283274260558 -1.1023771160412594 1.2454107389839377 -1.1924823037872656 1.2943630064021616 C -1.3555128641868288 1.3830533919801455 -1.5382009535339312 1.4293945444567782 -1.7237942772429062 1.4291370316961052 C -2.0230876926651247 1.4293344073568246 -2.30983018343661 1.3089012560780864 -2.5192235145049415 1.0950531315215293 L -2.733106000582569 1.308935617599157 C -2.467084341549447 1.5796803342630086 -2.103360025840936 1.7320720482788055 -1.7237942772429062 1.7318128816510718 C -1.4476387694042085 1.7318128816510718 -1.1895858841704736 1.6526139077543633 -0.9713587686676552 1.51539602840875 C -0.8850375661268735 1.461275480588966 -0.8048283246644559 1.397969965004175 -0.7321326109430815 1.326585674638996 C -0.6594482990115265 1.2555616333524742 -0.5946010354923974 1.176937740147952 -0.5387060884090613 1.092066198791712 C -0.3859236996149962 0.861000434108097 -0.30463521972386776 0.5900283402185007 -0.30500123057899975 0.3130198349871669 C -0.30500123057899975 -0.4692850008862717 -0.9413989282564428 -1.1057732116767398 -1.7237942772429058 -1.1057732116767398" fill="#56cc84" transform="matrix(1,0,0,1,0,0)" fill-rule="nonzero"></path></g><g clip-path="url(#a127b982d-5b9b-4d2e-a5b1-1964ff8468f1abefaa11-656e-4ef2-97de-65575a50ab5a)"><path d=" M -2.817373708808667 0.537130302836597 C -2.8067836745847647 0.5889038034867886 -2.775013571913056 0.6882872015880308 -2.775013571913056 0.6882872015880308 L -3.062754758218929 0.7825113522468585 C -3.0786736036773132 0.7373550147351347 -3.0922386363548022 0.6914030888944658 -3.1033951459670686 0.6448409073361232 L -2.906529125138106 0.4478843733941338 L -2.8379201854652996 0.3792754337213273 C -2.8348240636484743 0.4322845171173355 -2.827957880550799 0.4850059142065326 -2.817373708808667 0.5370397897235715 Z" fill="#56cc84" transform="matrix(1,0,0,1,0,0)" fill-rule="nonzero"></path></g><g clip-path="url(#SvgjsClipPath1000abefaa11-656e-4ef2-97de-65575a50ab5a)"><path d=" M -0.989207096761231 0.4632458029123985 L -0.989207096761231 0.6415566355712754 L -1.2918829467161976 0.7669172971106379 L -1.2918829467161976 0.16056995295743182 Z" fill="#56cc84" transform="matrix(1,0,0,1,0,0)" fill-rule="nonzero"></path></g><g clip-path="url(#SvgjsClipPath1000abefaa11-656e-4ef2-97de-65575a50ab5a)"><path d=" M -2.817282382433289 0.537036802783375 L -3.062753944956575 0.782598878419686 L -2.702059189552705 0.849940634510145 L -1.9554165202110423 0.10329796516848266 L -1.2918648886261557 0.7669401098663937 L -0.9890985255581644 0.6415794483270312 L -1.9554165202110423 -0.32473854632584664 Z" fill="#56cc84" transform="matrix(1,0,0,1,0,0)" fill-rule="nonzero"></path></g><g clip-path="url(#SvgjsClipPath1000abefaa11-656e-4ef2-97de-65575a50ab5a)"><path d=" M -1.8059801838694338 1.0696189467615578 L -2.1086560338244005 1.0696189467615578 L -2.1086560338244005 0.7669430968065911 L -1.8059801838694338 0.7669430968065911 Z" fill="#56cc84" transform="matrix(1,0,0,1,0,0)" fill-rule="nonzero"></path></g><g clip-path="url(#SvgjsClipPath1000abefaa11-656e-4ef2-97de-65575a50ab5a)"><path d=" M -0.989207096761231 -0.07257053745707487 L -0.989207096761231 0.6414874111956557 L -1.2918829467161976 0.7668480727350186 L -1.2918829467161976 -0.07257053745707487 Z" fill="#56cc84" transform="matrix(1,0,0,1,0,0)" fill-rule="nonzero"></path></g><g clip-path="url(#b127b982d-5b9b-4d2e-a5b1-1964ff8468f1abefaa11-656e-4ef2-97de-65575a50ab5a)"><path d=" M -1.7237942772429058 -1.1057732116767398 C -2.5060991131163437 -1.1057732116767398 -3.142587323906812 -0.4692850008862717 -3.142587323906812 0.31301983498716623 C -3.142587323906812 0.3522120129269093 -3.1409580878723653 0.39095162530152816 -3.137790128916497 0.4294196983370726 C -3.1281529314540157 0.5498665608384679 -3.102930655097673 0.6685542569374932 -3.0627547582189276 0.7825113522468625 L -2.775013571913056 0.688287201588031 C -2.775013571913056 0.688287201588031 -2.802529558272598 0.6093597670303961 -2.817373708808667 0.5371303028365975 L -2.817373708808667 0.5370397897235726 C -2.832310709992509 0.46330076197177683 -2.8398606176478114 0.3882564991329296 -2.8399114739518447 0.31301983498716623 C -2.839911473951845 0.24504448710553373 -2.833756582266158 0.17833632280624823 -2.821989877572933 0.11361944699350879 C -2.727765726914105 -0.40701197912520215 -2.2712175848169602 -0.8030973617217732 -1.7237942772429058 -0.8030973617217732 C -1.1083956217872184 -0.8030973617217732 -0.6076770805339664 -0.30237882046852105 -0.6076770805339664 0.31301983498716623 C -0.6076770805339664 0.5166743392929898 -0.6625280270270015 0.7079285471144146 -0.7582909006072511 0.8724813865935201 C -0.8096323995791908 0.9607316793384872 -0.8727912675229237 1.041553104373524 -0.9460150970207089 1.112703188561368 C -1.0194423445206993 1.184283274260558 -1.1023771160412594 1.2454107389839377 -1.1924823037872656 1.2943630064021616 C -1.3555128641868288 1.3830533919801455 -1.5382009535339312 1.4293945444567782 -1.7237942772429062 1.4291370316961052 C -2.0230876926651247 1.4293344073568246 -2.30983018343661 1.3089012560780864 -2.5192235145049415 1.0950531315215293 L -2.733106000582569 1.308935617599157 C -2.467084341549447 1.5796803342630086 -2.103360025840936 1.7320720482788055 -1.7237942772429062 1.7318128816510718 C -1.4476387694042085 1.7318128816510718 -1.1895858841704736 1.6526139077543633 -0.9713587686676552 1.51539602840875 C -0.8850375661268735 1.461275480588966 -0.8048283246644559 1.397969965004175 -0.7321326109430815 1.326585674638996 C -0.6594482990115265 1.2555616333524742 -0.5946010354923974 1.176937740147952 -0.5387060884090613 1.092066198791712 C -0.3859236996149962 0.861000434108097 -0.30463521972386776 0.5900283402185007 -0.30500123057899975 0.3130198349871669 C -0.30500123057899975 -0.4692850008862717 -0.9413989282564428 -1.1057732116767398 -1.7237942772429058 -1.1057732116767398" fill="#56cc84" transform="matrix(1,0,0,1,0,0)" fill-rule="nonzero"></path></g><g clip-path="url(#b127b982d-5b9b-4d2e-a5b1-1964ff8468f1abefaa11-656e-4ef2-97de-65575a50ab5a)"><path d=" M -2.817373708808667 0.537130302836597 C -2.8067836745847647 0.5889038034867886 -2.775013571913056 0.6882872015880308 -2.775013571913056 0.6882872015880308 L -3.062754758218929 0.7825113522468585 C -3.0786736036773132 0.7373550147351347 -3.0922386363548022 0.6914030888944658 -3.1033951459670686 0.6448409073361232 L -2.906529125138106 0.4478843733941338 L -2.8379201854652996 0.3792754337213273 C -2.8348240636484743 0.4322845171173355 -2.827957880550799 0.4850059142065326 -2.817373708808667 0.5370397897235715 Z" fill="#56cc84" transform="matrix(1,0,0,1,0,0)" fill-rule="nonzero"></path></g><g clip-path="url(#SvgjsClipPath1000abefaa11-656e-4ef2-97de-65575a50ab5a)"><path d=" M -0.989207096761231 0.4632458029123985 L -0.989207096761231 0.6415566355712754 L -1.2918829467161976 0.7669172971106379 L -1.2918829467161976 0.16056995295743182 Z" fill="#56cc84" transform="matrix(1,0,0,1,0,0)" fill-rule="nonzero"></path></g><g clip-path="url(#SvgjsClipPath1000abefaa11-656e-4ef2-97de-65575a50ab5a)"><path d=" M -2.817282382433289 0.537036802783375 L -3.062753944956575 0.782598878419686 L -2.702059189552705 0.849940634510145 L -1.9554165202110423 0.10329796516848266 L -1.2918648886261557 0.7669401098663937 L -0.9890985255581644 0.6415794483270312 L -1.9554165202110423 -0.32473854632584664 Z" fill="#56cc84" transform="matrix(1,0,0,1,0,0)" fill-rule="nonzero"></path></g><g clip-path="url(#SvgjsClipPath1000abefaa11-656e-4ef2-97de-65575a50ab5a)"><path d=" M -1.8059801838694338 1.0696189467615578 L -2.1086560338244005 1.0696189467615578 L -2.1086560338244005 0.7669430968065911 L -1.8059801838694338 0.7669430968065911 Z" fill="#56cc84" transform="matrix(1,0,0,1,0,0)" fill-rule="nonzero"></path></g></g></g><defs><clipPath id="SvgjsClipPath1002"><path d=" M -3.142587323906812 -1.1057732116767403 h 2.8375873239068117 v 2.83758642335348 h -2.8375873239068117 Z"></path></clipPath><clipPath id="SvgjsClipPath1000abefaa11-656e-4ef2-97de-65575a50ab5a"><path d=" M -3.142587323906812 -1.10577321167674 L -0.30500000000000016 -1.10577321167674 L -0.30500000000000016 1.7318132116767395 L -3.142587323906812 1.7318132116767395 Z"></path></clipPath><clipPath id="a127b982d-5b9b-4d2e-a5b1-1964ff8468f1abefaa11-656e-4ef2-97de-65575a50ab5a"><path d=" M -3.142587323906812 1.7318128816510718 L -0.30500123057899975 1.7318128816510718 L -0.30500123057899975 -1.1057732116767398 L -3.142587323906812 -1.1057732116767398 Z"></path></clipPath><clipPath id="b127b982d-5b9b-4d2e-a5b1-1964ff8468f1abefaa11-656e-4ef2-97de-65575a50ab5a"><path d=" M -3.142587323906812 1.7318128816510718 L -0.30500123057899975 1.7318128816510718 L -0.30500123057899975 -1.1057732116767398 L -3.142587323906812 -1.1057732116767398 Z"></path></clipPath></defs></svg>